{"title":"Jeepers Creepers 2001 720p BRRip H264 AAC-Rx(Phoenix-RG) ","uid":5908823,"size":1444142470,"categoryP":"video","categoryS":"hd___movies","magnet":"?xt=urn:btih:33b1b3067c56291e037f92b5471530051200b2dd&amp;dn=Jeepers+Creepers+2001+720p+BRRip+H264+AAC-Rx%28Phoenix-RG%29+&amp;tr=udp%3A%2F%2Ftracker.openbittorrent.com%3A80&amp;tr=udp%3A%2F%2Fopen.demonii.com%3A1337&amp;tr=udp%3A%2F%2Ftracker.coppersurfer.tk%3A6969&amp;tr=udp%3A%2F%2Fexodus.desync.com%3A6969","seeders":3,"leechers":0,"uploader":"deffjam555","files":8,"time":1287987073,"description":"cover\n &lt;a href=&quot;\nhttp://img819.imageshack.us/img819/9677/jeeperscreeperscopy.png&quot; rel=&quot;nofollow&quot; target=&quot;_NEW&quot;&gt;\nhttp://img819.imageshack.us/img819/9677/jeeperscreeperscopy.png&lt;/a&gt;\n\nOn their way back home during the spring break, Darry and Patricia\nJenner witness a mysterious person dumping something down a tunnel.\nDeciding to discover what was dumped down there, Darry discovers a\nhuge disturbing hideout full of modified bodies. Darry and Patricia\nset off to get help, unaware that the individual is now aware of who\nhas been down the tunnel. Darry and Patricia soon realizes that their\npursuer is not just a mysterious person, but something even more horrifying,\nwho has more in store than they could possibly imagine.\n\n\nSOURCE: SINNERS (4.49GB) THANKS!!!\n\n\nJeepers Creepers 2001 720p BRRip H264 AAC-Rx(Phoenix-RG).mp4\nFormat : MPEG-4 / AVC\nFile size : 1.34 GiB\nDuration : 1h 30mn\nBit rate mode : Variable\nBit rate : 1 800 Kbps\nMaximum bit rate : 10.4 Mbps\nWidth : 1 280 pixels\nHeight : 688 pixels\nDisplay aspect ratio : 1.860\nFrame rate mode : Constant\nFrame rate : 23.976 fps\nResolution : 24 bits\nColorimetry : 4:2:0\nScan type : Progressive\nBits/(Pixel*Frame) : 0.085\nStream size : 1.14 GiB (85%)\n\n\nFormat : AAC / LC\nDuration : 1h 30mn\nBit rate mode : Variable\nBit rate : 321 Kbps\nMaximum bit rate : 456 Kbps\nChannel(s) : 6 channels\nChannel positions : Front: L C R, Rear: L R, LFE\nSampling rate : 48.0 KHz\nResolution : 16 bits\nStream size : 208 MiB (15%)\n &lt;a href=&quot;\nhttp://www.imdb.com/title/tt0263488&quot; rel=&quot;nofollow&quot; target=&quot;_NEW&quot;&gt;\nhttp://www.imdb.com/title/tt0263488&lt;/a&gt;\n\nscreens\n &lt;a href=&quot;\nhttp://img696.imageshack.us/img696/9585/vlcsnap2010102409h41m54.png&quot; rel=&quot;nofollow&quot; target=&quot;_NEW&quot;&gt;\nhttp://img696.imageshack.us/img696/9585/vlcsnap2010102409h41m54.png&lt;/a&gt; &lt;a href=&quot;\nhttp://img515.imageshack.us/img515/9539/vlcsnap2010102409h43m05.png&quot; rel=&quot;nofollow&quot; target=&quot;_NEW&quot;&gt;\nhttp://img515.imageshack.us/img515/9539/vlcsnap2010102409h43m05.png&lt;/a&gt; &lt;a href=&quot;\nhttp://img638.imageshack.us/img638/6016/vlcsnap2010102409h45m15.png&quot; rel=&quot;nofollow&quot; target=&quot;_NEW&quot;&gt;\nhttp://img638.imageshack.us/img638/6016/vlcsnap2010102409h45m15.png&lt;/a&gt;\n","torrent":{"xt":"urn:btih:33b1b3067c56291e037f92b5471530051200b2dd","amp;dn":"Jeepers+Creepers+2001+720p+BRRip+H264+AAC-Rx%28Phoenix-RG%29+","amp;tr":["udp%3A%2F%2Ftracker.openbittorrent.com%3A80","udp%3A%2F%2Fopen.demonii.com%3A1337","udp%3A%2F%2Ftracker.coppersurfer.tk%3A6969","udp%3A%2F%2Fexodus.desync.com%3A6969"],"infoHash":"33b1b3067c56291e037f92b5471530051200b2dd","infoHashBuffer":{"type":"Buffer","data":[51,177,179,6,124,86,41,30,3,127,146,181,71,21,48,5,18,0,178,221]},"announce":[],"urlList":[]}}